# File created by Blade
# Date/Time:  Wed Apr 08 17:00:17 2015
# Frame Rate: 120.000 fps
#------------------------------------------------------
:FULLY-SPECIFIED
:DEGREES
1619
root 1.643047 35.734033 2.980382 -26.864481 -76.985511 14.168361
Spine 8.585912 4.463202 -8.597452
Head -0.025039 2.023182 -3.178033
LeftShoulder 7.270786 -2.351163 26.449850
LeftArm 91.796243 45.423860 -41.836795
LeftForeArm -48.731607 0.000000 94.687736
LeftHand -34.902819 -0.000000 26.626664
LeftHandThumb1 -26.253704 0.000000 33.147579
RightShoulder 7.438085 -28.359058 -26.689045
RightArm 95.752460 24.218260 92.059791
RightForeArm 15.039517 0.000000 -2.502874
RightHand -6.092241 -0.000000 -2.259397
RightHandThumb1 -24.326973 -0.000000 -32.862282
LeftUpLeg 13.055373 5.904299 4.790833
LeftLeg 12.214759 -0.000000 -0.000000
LeftFoot -13.310667 -3.602756 -11.991173
LeftToeBase 10.753432 -0.000000 -0.000000
RightUpLeg 23.884133 -19.436283 -18.905274
RightLeg 1.427059 -0.000000 -0.000000
RightFoot -11.138405 5.443241 20.307624
RightToeBase 14.604990 -0.000000 -0.000000
1620
root 1.642539 35.733813 2.979396 -26.843437 -76.974333 14.151577
Spine 8.606223 4.509456 -8.598475
Head -0.004501 1.991284 -3.127631
LeftShoulder 7.286030 -2.351122 26.462399
LeftArm 91.851349 45.449142 -41.744072
LeftForeArm -48.891891 -0.000000 94.662006
LeftHand -34.860442 0.000000 26.715248
LeftHandThumb1 -26.253704 0.000000 33.147579
RightShoulder 7.494825 -28.370979 -26.693830
RightArm 95.343104 24.233270 91.141497
RightForeArm 13.000295 -0.000000 -2.360543
RightHand -6.193123 -0.000000 -1.127588
RightHandThumb1 -24.326973 -0.000000 -32.862282
LeftUpLeg 13.043778 5.878338 4.784368
LeftLeg 12.222460 -0.000000 -0.000000
LeftFoot -13.315926 -3.576000 -11.969921
LeftToeBase 10.732249 -0.000000 -0.000000
RightUpLeg 23.876560 -19.434847 -18.900670
RightLeg 1.440899 -0.000000 -0.000000
RightFoot -11.148368 5.436428 20.308472
RightToeBase 14.619829 -0.000000 -0.000000
1621
root 1.641424 35.733415 2.978861 -26.817259 -76.958019 14.128418
Spine 8.627037 4.542369 -8.605170
Head 0.017482 1.956952 -3.061894
LeftShoulder 7.288825 -2.380981 26.493805
LeftArm 91.790427 45.507221 -41.724237
LeftForeArm -48.890739 -0.000000 94.630712
LeftHand -34.736539 -0.000000 26.239752
LeftHandThumb1 -26.253704 0.000000 33.147579
RightShoulder 7.569456 -28.386647 -26.692928
RightArm 94.971709 24.259299 90.259918
RightForeArm 10.838157 -0.000000 -2.196707
RightHand -6.409427 -0.000000 -0.119426
RightHandThumb1 -24.326973 -0.000000 -32.862282
LeftUpLeg 13.029797 5.847778 4.775204
LeftLeg 12.239925 -0.000000 -0.000000
LeftFoot -13.328558 -3.551152 -11.964534
LeftToeBase 10.721499 -0.000000 -0.000000
RightUpLeg 23.875937 -19.439209 -18.897879
RightLeg 1.450854 -0.000000 -0.000000
RightFoot -11.162170 5.419849 20.294803
RightToeBase 14.557804 -0.000000 -0.000000
1622
root 1.640693 35.732981 2.977413 -26.796744 -76.939571 14.110231
Spine 8.650055 4.567002 -8.608159
Head 0.030727 1.929889 -3.039655
LeftShoulder 7.295471 -2.358344 26.485794
LeftArm 91.887321 45.476876 -41.577047
LeftForeArm -49.071696 0.000000 94.586142
LeftHand -34.683725 -0.000000 26.225882
LeftHandThumb1 -26.253704 0.000000 33.147579
RightShoulder 7.638877 -28.381839 -26.712554
RightArm 94.587568 24.214656 89.376405
RightForeArm 9.182373 -0.000000 -2.023643
RightHand -6.397151 -0.000000 0.797952
RightHandThumb1 -24.326973 -0.000000 -32.862282
LeftUpLeg 13.012693 5.823564 4.769405
LeftLeg 12.261018 -0.000000 -0.000000
LeftFoot -13.333957 -3.537115 -11.943633
LeftToeBase 10.691325 -0.000000 -0.000000
RightUpLeg 23.872760 -19.449054 -18.899474
RightLeg 1.468047 -0.000000 -0.000000
RightFoot -11.174273 5.416995 20.289741
RightToeBase 14.561051 -0.000000 -0.000000
1623
root 1.639051 35.732495 2.975987 -26.764159 -76.925240 14.079611
Spine 8.670236 4.591736 -8.608967
Head 0.042252 1.902172 -3.009458
LeftShoulder 7.294835 -2.345753 26.479769
LeftArm 91.932241 45.476088 -41.475650
LeftForeArm -49.237879 0.000000 94.516386
LeftHand -34.573119 -0.000000 25.931290
LeftHandThumb1 -26.253704 0.000000 33.147579
RightShoulder 7.719417 -28.350447 -26.733498
RightArm 94.103302 24.172822 88.302257
RightForeArm 7.835071 0.000000 -1.835012
RightHand -6.248713 -0.000000 1.624132
RightHandThumb1 -24.326973 -0.000000 -32.862282
LeftUpLeg 13.004537 5.796356 4.766456
LeftLeg 12.268539 -0.000000 -0.000000
LeftFoot -13.341425 -3.529113 -11.956942
LeftToeBase 10.695000 -0.000000 -0.000000
RightUpLeg 23.869647 -19.458965 -18.898490
RightLeg 1.486413 -0.000000 -0.000000
RightFoot -11.193281 5.430269 20.321260
RightToeBase 14.597266 -0.000000 -0.000000
1624
root 1.637450 35.732202 2.973785 -26.716787 -76.910353 14.029716
Spine 8.689347 4.600566 -8.610292
Head 0.073808 1.890827 -2.971947
LeftShoulder 7.293429 -2.332046 26.491273
LeftArm 91.945123 45.472316 -41.413110
LeftForeArm -49.460315 -0.000000 94.472378
LeftHand -34.529932 -0.000000 25.798906
LeftHandThumb1 -26.253704 0.000000 33.147579
RightShoulder 7.834339 -28.338479 -26.766107
RightArm 93.648242 24.139632 87.189518
RightForeArm 6.453915 -0.000000 -1.674491
RightHand -6.078199 0.000000 2.552632
RightHandThumb1 -24.326973 -0.000000 -32.862282
LeftUpLeg 12.999938 5.770069 4.770740
LeftLeg 12.276244 -0.000000 -0.000000
LeftFoot -13.342372 -3.519476 -11.957148
LeftToeBase 10.664474 -0.000000 -0.000000
RightUpLeg 23.873573 -19.469175 -18.892713
RightLeg 1.502127 -0.000000 -0.000000
RightFoot -11.201697 5.435504 20.341251
RightToeBase 14.581709 -0.000000 -0.000000
1625
root 1.635551 35.731795 2.971517 -26.678070 -76.891546 13.993649
Spine 8.708851 4.610700 -8.617620
Head 0.081319 1.882402 -2.931369
LeftShoulder 7.288970 -2.320711 26.485252
LeftArm 92.000695 45.465764 -41.304994
LeftForeArm -49.621216 -0.000000 94.434900
LeftHand -34.478851 -0.000000 25.695845
LeftHandThumb1 -26.253704 0.000000 33.147579
RightShoulder 7.930122 -28.311503 -26.791201
RightArm 93.184414 24.092062 86.070940
RightForeArm 5.083274 -0.000000 -1.482711
RightHand -6.053939 -0.000000 3.590132
RightHandThumb1 -24.326973 -0.000000 -32.862282
LeftUpLeg 12.990635 5.752209 4.774249
LeftLeg 12.284140 -0.000000 -0.000000
LeftFoot -13.354615 -3.516160 -11.945797
LeftToeBase 10.698292 -0.000000 -0.000000
RightUpLeg 23.870789 -19.478591 -18.890718
RightLeg 1.520029 -0.000000 -0.000000
RightFoot -11.203827 5.442233 20.344627
RightToeBase 14.575312 -0.000000 -0.000000
1626
root 1.633653 35.731422 2.969523 -26.631925 -76.863914 13.946697
Spine 8.731001 4.630351 -8.628336
Head 0.092066 1.844302 -2.882143
LeftShoulder 7.301459 -2.320615 26.496621
LeftArm 92.074184 45.453949 -41.194772
LeftForeArm -49.779934 0.000000 94.387171
LeftHand -34.407726 -0.000000 25.596030
LeftHandThumb1 -26.253704 0.000000 33.147579
RightShoulder 8.021314 -28.307607 -26.797955
RightArm 92.787314 24.055953 85.042679
RightForeArm 3.570302 -0.000000 -1.286284
RightHand -6.052300 -0.000000 4.862989
RightHandThumb1 -24.326973 -0.000000 -32.862282
LeftUpLeg 12.986461 5.724110 4.775395
LeftLeg 12.283332 -0.000000 -0.000000
LeftFoot -13.348986 -3.521320 -11.954301
LeftToeBase 10.687158 -0.000000 -0.000000
RightUpLeg 23.881162 -19.508281 -18.896428
RightLeg 1.531913 -0.000000 -0.000000
RightFoot -11.215145 5.444809 20.340765
RightToeBase 14.592745 -0.000000 -0.000000
1627
root 1.630754 35.730872 2.966699 -26.559020 -76.833405 13.871097
Spine 8.751445 4.632986 -8.636043
Head 0.099964 1.810898 -2.844918
LeftShoulder 7.314741 -2.325664 26.497228
LeftArm 92.159375 45.431797 -41.067199
LeftForeArm -49.930571 0.000000 94.328975
LeftHand -34.312690 0.000000 25.462352
LeftHandThumb1 -26.253704 0.000000 33.147579
RightShoulder 8.126023 -28.286965 -26.814938
RightArm 92.391497 23.997491 84.047820
RightForeArm 2.257285 0.000000 -1.103977
RightHand -5.980718 -0.000000 5.959681
RightHandThumb1 -24.326973 -0.000000 -32.862282
LeftUpLeg 12.983443 5.696001 4.785458
LeftLeg 12.288039 -0.000000 -0.000000
LeftFoot -13.355567 -3.532063 -11.951003
LeftToeBase 10.686560 -0.000000 -0.000000
RightUpLeg 23.901566 -19.542480 -18.898988
RightLeg 1.536183 -0.000000 -0.000000
RightFoot -11.223815 5.459549 20.363853
RightToeBase 14.570057 -0.000000 -0.000000
